<svg xmlns="http://www.w3.org/2000/svg" xmlns:xlink="http://www.w3.org/1999/xlink" version="1.1" width="256" height="256" viewBox="0 0 256 256" xml:space="preserve">
<desc>Created with Fabric.js 1.7.22</desc>
<defs>
</defs>
<g transform="translate(128 128) scale(0.72 0.72)" style="">
	<g style="stroke: none; stroke-width: 0; stroke-dasharray: none; stroke-linecap: butt; stroke-linejoin: miter; stroke-miterlimit: 10; fill: none; fill-rule: nonzero; opacity: 1;" transform="translate(-175.05 -175.05000000000004) scale(3.89 3.89)" >
	<path d="M 52.476 90 H 37.524 c -2.764 0 -5.012 -2.248 -5.012 -5.012 c 0 -2.008 -1.3 -3.262 -2.516 -3.766 c -1.217 -0.506 -3.022 -0.536 -4.443 0.883 c -0.946 0.947 -2.205 1.469 -3.543 1.469 s -2.598 -0.521 -3.544 -1.469 L 7.894 71.534 c -1.954 -1.955 -1.954 -5.135 0 -7.088 c 1.42 -1.42 1.388 -3.227 0.884 -4.442 c -0.504 -1.217 -1.758 -2.517 -3.766 -2.517 C 2.248 57.487 0 55.239 0 52.476 V 37.524 c 0 -2.764 2.248 -5.012 5.012 -5.012 c 2.008 0 3.262 -1.3 3.766 -2.517 c 0.504 -1.216 0.536 -3.022 -0.884 -4.442 c -1.954 -1.954 -1.954 -5.133 0 -7.087 L 18.466 7.894 c 1.954 -1.955 5.133 -1.954 7.087 0 c 1.42 1.419 3.227 1.387 4.442 0.884 c 1.217 -0.504 2.517 -1.758 2.517 -3.766 C 32.513 2.248 34.761 0 37.524 0 h 14.951 c 2.764 0 5.012 2.248 5.012 5.012 v 2.466 c 0 1.505 0.974 2.445 1.886 2.823 c 0.913 0.376 2.265 0.401 3.329 -0.663 l 1.744 -1.744 c 1.952 -1.954 5.132 -1.954 7.088 0 l 10.571 10.573 c 0.947 0.946 1.469 2.205 1.469 3.544 s -0.521 2.597 -1.469 3.544 c -1.42 1.42 -1.387 3.226 -0.883 4.442 s 1.758 2.516 3.766 2.516 c 2.764 0 5.012 2.248 5.012 5.012 v 14.951 c 0 2.764 -2.248 5.012 -5.012 5.012 c -2.008 0 -3.262 1.3 -3.766 2.516 c -0.504 1.217 -0.537 3.023 0.883 4.443 c 0.947 0.946 1.469 2.205 1.469 3.544 c 0 1.338 -0.521 2.597 -1.469 3.544 L 71.534 82.105 c -0.947 0.947 -2.206 1.469 -3.544 1.469 c -1.339 0 -2.598 -0.521 -3.544 -1.469 c -1.42 -1.42 -3.226 -1.39 -4.443 -0.883 c -1.216 0.504 -2.516 1.758 -2.516 3.766 C 57.487 87.752 55.239 90 52.476 90 z M 28.397 78.896 c 0.789 0 1.589 0.157 2.365 0.479 c 2.313 0.958 3.75 3.109 3.75 5.613 c 0 1.661 1.351 3.012 3.012 3.012 h 14.951 c 1.661 0 3.012 -1.351 3.012 -3.012 c 0 -2.504 1.438 -4.655 3.751 -5.613 c 2.314 -0.96 4.852 -0.455 6.622 1.316 c 1.139 1.139 3.121 1.14 4.26 0 L 80.691 70.12 c 0.569 -0.569 0.883 -1.326 0.883 -2.13 c 0 -0.805 -0.313 -1.561 -0.883 -2.13 c -1.771 -1.771 -2.275 -4.309 -1.316 -6.622 c 0.958 -2.313 3.109 -3.751 5.613 -3.751 c 1.661 0 3.012 -1.351 3.012 -3.012 V 37.524 c 0 -1.661 -1.351 -3.012 -3.012 -3.012 c -2.504 0 -4.655 -1.437 -5.613 -3.75 c -0.959 -2.314 -0.454 -4.852 1.316 -6.623 c 0.569 -0.569 0.883 -1.325 0.883 -2.129 s -0.313 -1.561 -0.883 -2.13 L 70.12 9.308 c -1.176 -1.174 -3.086 -1.174 -4.26 0 l -1.744 1.744 c -1.474 1.474 -3.583 1.893 -5.509 1.096 c -1.925 -0.797 -3.12 -2.587 -3.12 -4.67 V 5.012 C 55.487 3.351 54.137 2 52.476 2 H 37.524 c -1.661 0 -3.012 1.351 -3.012 3.012 c 0 2.504 -1.438 4.655 -3.751 5.614 c -2.313 0.959 -4.851 0.455 -6.622 -1.317 c -0.569 -0.569 -1.325 -0.882 -2.129 -0.882 h 0 c -0.804 0 -1.561 0.313 -2.129 0.882 L 9.308 19.88 c -1.174 1.174 -1.174 3.085 0 4.259 c 1.771 1.771 2.276 4.308 1.317 6.622 c -0.958 2.313 -3.109 3.751 -5.614 3.751 C 3.351 34.513 2 35.864 2 37.524 v 14.951 c 0 1.661 1.351 3.012 3.012 3.012 c 2.504 0 4.655 1.438 5.614 3.751 s 0.454 4.852 -1.317 6.622 c -1.174 1.174 -1.174 3.085 0 4.26 L 19.88 80.691 c 1.139 1.139 3.122 1.139 4.259 0 C 25.317 79.515 26.833 78.896 28.397 78.896 z" style="stroke: none; stroke-width: 1; stroke-dasharray: none; stroke-linecap: butt; stroke-linejoin: miter; stroke-miterlimit: 10; fill: rgb(255,255,255); fill-rule: nonzero; opacity: 1;" transform=" matrix(1 0 0 1 0 0) " stroke-linecap="round" />
	<path d="M 45 66.152 c -11.664 0 -21.152 -9.489 -21.152 -21.152 c 0 -11.664 9.489 -21.152 21.152 -21.152 c 11.663 0 21.152 9.489 21.152 21.152 C 66.152 56.663 56.663 66.152 45 66.152 z M 45 25.848 c -10.561 0 -19.152 8.592 -19.152 19.152 S 34.439 64.152 45 64.152 S 64.152 55.561 64.152 45 S 55.561 25.848 45 25.848 z" style="stroke: none; stroke-width: 1; stroke-dasharray: none; stroke-linecap: butt; stroke-linejoin: miter; stroke-miterlimit: 10; fill: rgb(255,255,255); fill-rule: nonzero; opacity: 1;" transform=" matrix(1 0 0 1 0 0) " stroke-linecap="round" />
</g>
</g>
</svg>